<?xml version="1.0" encoding="utf-8" ?>
<svg baseProfile="full" height="16" version="1.1" width="16" xmlns="http://www.w3.org/2000/svg" xmlns:ev="http://www.w3.org/2001/xml-events" xmlns:xlink="http://www.w3.org/1999/xlink"><defs /><rect fill="rgb(159,201,215)" height="1" width="1" x="0" y="0" /><rect fill="rgb(158,199,213)" height="1" width="1" x="1" y="0" /><rect fill="rgb(158,199,212)" height="1" width="1" x="2" y="0" /><rect fill="rgb(157,199,213)" height="1" width="1" x="3" y="0" /><rect fill="rgb(159,199,212)" height="1" width="1" x="4" y="0" /><rect fill="rgb(158,199,213)" height="1" width="1" x="5" y="0" /><rect fill="rgb(158,200,213)" height="1" width="1" x="6" y="0" /><rect fill="rgb(159,198,211)" height="1" width="1" x="7" y="0" /><rect fill="rgb(154,198,211)" height="1" width="1" x="8" y="0" /><rect fill="rgb(157,197,210)" height="1" width="1" x="9" y="0" /><rect fill="rgb(159,198,211)" height="1" width="1" x="10" y="0" /><rect fill="rgb(158,199,213)" height="1" width="1" x="11" y="0" /><rect fill="rgb(157,198,212)" height="1" width="1" x="12" y="0" /><rect fill="rgb(158,199,213)" height="1" width="1" x="13" y="0" /><rect fill="rgb(158,199,213)" height="1" width="1" x="14" y="0" /><rect fill="rgb(157,199,213)" height="1" width="1" x="15" y="0" /><rect fill="rgb(160,201,214)" height="1" width="1" x="0" y="1" /><rect fill="rgb(158,200,213)" height="1" width="1" x="1" y="1" /><rect fill="rgb(162,202,215)" height="1" width="1" x="2" y="1" /><rect fill="rgb(166,202,213)" height="1" width="1" x="3" y="1" /><rect fill="rgb(159,202,216)" height="1" width="1" x="4" y="1" /><rect fill="rgb(158,199,213)" height="1" width="1" x="5" y="1" /><rect fill="rgb(154,196,209)" height="1" width="1" x="6" y="1" /><rect fill="rgb(155,205,220)" height="1" width="1" x="7" y="1" /><rect fill="rgb(171,209,222)" height="1" width="1" x="8" y="1" /><rect fill="rgb(157,209,225)" height="1" width="1" x="9" y="1" /><rect fill="rgb(152,201,217)" height="1" width="1" x="10" y="1" /><rect fill="rgb(158,197,211)" height="1" width="1" x="11" y="1" /><rect fill="rgb(158,199,213)" height="1" width="1" x="12" y="1" /><rect fill="rgb(158,199,213)" height="1" width="1" x="13" y="1" /><rect fill="rgb(158,199,213)" height="1" width="1" x="14" y="1" /><rect fill="rgb(158,199,213)" height="1" width="1" x="15" y="1" /><rect fill="rgb(159,201,214)" height="1" width="1" x="0" y="2" /><rect fill="rgb(163,201,212)" height="1" width="1" x="1" y="2" /><rect fill="rgb(119,196,228)" height="1" width="1" x="2" y="2" /><rect fill="rgb(122,198,228)" height="1" width="1" x="3" y="2" /><rect fill="rgb(119,188,223)" height="1" width="1" x="4" y="2" /><rect fill="rgb(152,200,218)" height="1" width="1" x="5" y="2" /><rect fill="rgb(172,212,232)" height="1" width="1" x="6" y="2" /><rect fill="rgb(194,185,192)" height="1" width="1" x="7" y="2" /><rect fill="rgb(233,133,97)" height="1" width="1" x="8" y="2" /><rect fill="rgb(230,160,145)" height="1" width="1" x="9" y="2" /><rect fill="rgb(199,200,200)" height="1" width="1" x="10" y="2" /><rect fill="rgb(156,209,224)" height="1" width="1" x="11" y="2" /><rect fill="rgb(158,197,211)" height="1" width="1" x="12" y="2" /><rect fill="rgb(159,199,213)" height="1" width="1" x="13" y="2" /><rect fill="rgb(158,199,213)" height="1" width="1" x="14" y="2" /><rect fill="rgb(159,199,213)" height="1" width="1" x="15" y="2" /><rect fill="rgb(158,200,214)" height="1" width="1" x="0" y="3" /><rect fill="rgb(164,202,214)" height="1" width="1" x="1" y="3" /><rect fill="rgb(125,198,227)" height="1" width="1" x="2" y="3" /><rect fill="rgb(110,192,227)" height="1" width="1" x="3" y="3" /><rect fill="rgb(171,208,220)" height="1" width="1" x="4" y="3" /><rect fill="rgb(178,210,218)" height="1" width="1" x="5" y="3" /><rect fill="rgb(173,202,184)" height="1" width="1" x="6" y="3" /><rect fill="rgb(175,173,108)" height="1" width="1" x="7" y="3" /><rect fill="rgb(150,148,72)" height="1" width="1" x="8" y="3" /><rect fill="rgb(144,99,61)" height="1" width="1" x="9" y="3" /><rect fill="rgb(203,77,65)" height="1" width="1" x="10" y="3" /><rect fill="rgb(209,177,180)" height="1" width="1" x="11" y="3" /><rect fill="rgb(153,210,226)" height="1" width="1" x="12" y="3" /><rect fill="rgb(159,200,216)" height="1" width="1" x="13" y="3" /><rect fill="rgb(159,199,212)" height="1" width="1" x="14" y="3" /><rect fill="rgb(158,199,213)" height="1" width="1" x="15" y="3" /><rect fill="rgb(159,200,214)" height="1" width="1" x="0" y="4" /><rect fill="rgb(159,200,213)" height="1" width="1" x="1" y="4" /><rect fill="rgb(132,201,226)" height="1" width="1" x="2" y="4" /><rect fill="rgb(183,198,206)" height="1" width="1" x="3" y="4" /><rect fill="rgb(193,184,205)" height="1" width="1" x="4" y="4" /><rect fill="rgb(135,170,159)" height="1" width="1" x="5" y="4" /><rect fill="rgb(119,235,108)" height="1" width="1" x="6" y="4" /><rect fill="rgb(158,245,120)" height="1" width="1" x="7" y="4" /><rect fill="rgb(165,205,154)" height="1" width="1" x="8" y="4" /><rect fill="rgb(131,185,182)" height="1" width="1" x="9" y="4" /><rect fill="rgb(94,117,125)" height="1" width="1" x="10" y="4" /><rect fill="rgb(162,95,117)" height="1" width="1" x="11" y="4" /><rect fill="rgb(180,215,226)" height="1" width="1" x="12" y="4" /><rect fill="rgb(135,196,218)" height="1" width="1" x="13" y="4" /><rect fill="rgb(156,200,214)" height="1" width="1" x="14" y="4" /><rect fill="rgb(158,198,212)" height="1" width="1" x="15" y="4" /><rect fill="rgb(159,200,213)" height="1" width="1" x="0" y="5" /><rect fill="rgb(154,201,215)" height="1" width="1" x="1" y="5" /><rect fill="rgb(189,198,205)" height="1" width="1" x="2" y="5" /><rect fill="rgb(126,143,182)" height="1" width="1" x="3" y="5" /><rect fill="rgb(93,133,186)" height="1" width="1" x="4" y="5" /><rect fill="rgb(173,174,212)" height="1" width="1" x="5" y="5" /><rect fill="rgb(129,201,136)" height="1" width="1" x="6" y="5" /><rect fill="rgb(143,184,151)" height="1" width="1" x="7" y="5" /><rect fill="rgb(91,121,198)" height="1" width="1" x="8" y="5" /><rect fill="rgb(131,152,202)" height="1" width="1" x="9" y="5" /><rect fill="rgb(172,188,211)" height="1" width="1" x="10" y="5" /><rect fill="rgb(89,145,156)" height="1" width="1" x="11" y="5" /><rect fill="rgb(186,214,228)" height="1" width="1" x="12" y="5" /><rect fill="rgb(181,207,220)" height="1" width="1" x="13" y="5" /><rect fill="rgb(173,199,209)" height="1" width="1" x="14" y="5" /><rect fill="rgb(155,199,214)" height="1" width="1" x="15" y="5" /><rect fill="rgb(159,199,212)" height="1" width="1" x="0" y="6" /><rect fill="rgb(155,204,218)" height="1" width="1" x="1" y="6" /><rect fill="rgb(184,179,194)" height="1" width="1" x="2" y="6" /><rect fill="rgb(73,157,200)" height="1" width="1" x="3" y="6" /><rect fill="rgb(29,75,116)" height="1" width="1" x="4" y="6" /><rect fill="rgb(86,166,206)" height="1" width="1" x="5" y="6" /><rect fill="rgb(154,165,161)" height="1" width="1" x="6" y="6" /><rect fill="rgb(139,170,184)" height="1" width="1" x="7" y="6" /><rect fill="rgb(32,130,181)" height="1" width="1" x="8" y="6" /><rect fill="rgb(38,77,116)" height="1" width="1" x="9" y="6" /><rect fill="rgb(115,188,220)" height="1" width="1" x="10" y="6" /><rect fill="rgb(120,167,166)" height="1" width="1" x="11" y="6" /><rect fill="rgb(108,137,144)" height="1" width="1" x="12" y="6" /><rect fill="rgb(255,149,80)" height="1" width="1" x="13" y="6" /><rect fill="rgb(200,185,179)" height="1" width="1" x="14" y="6" /><rect fill="rgb(152,204,223)" height="1" width="1" x="15" y="6" /><rect fill="rgb(158,200,213)" height="1" width="1" x="0" y="7" /><rect fill="rgb(155,203,217)" height="1" width="1" x="1" y="7" /><rect fill="rgb(172,185,205)" height="1" width="1" x="2" y="7" /><rect fill="rgb(160,170,200)" height="1" width="1" x="3" y="7" /><rect fill="rgb(116,201,226)" height="1" width="1" x="4" y="7" /><rect fill="rgb(173,183,213)" height="1" width="1" x="5" y="7" /><rect fill="rgb(64,169,159)" height="1" width="1" x="6" y="7" /><rect fill="rgb(122,165,176)" height="1" width="1" x="7" y="7" /><rect fill="rgb(147,192,222)" height="1" width="1" x="8" y="7" /><rect fill="rgb(94,201,221)" height="1" width="1" x="9" y="7" /><rect fill="rgb(200,188,209)" height="1" width="1" x="10" y="7" /><rect fill="rgb(74,162,167)" height="1" width="1" x="11" y="7" /><rect fill="rgb(73,97,103)" height="1" width="1" x="12" y="7" /><rect fill="rgb(243,102,69)" height="1" width="1" x="13" y="7" /><rect fill="rgb(168,210,224)" height="1" width="1" x="14" y="7" /><rect fill="rgb(153,198,212)" height="1" width="1" x="15" y="7" /><rect fill="rgb(158,201,214)" height="1" width="1" x="0" y="8" /><rect fill="rgb(154,198,212)" height="1" width="1" x="1" y="8" /><rect fill="rgb(167,209,222)" height="1" width="1" x="2" y="8" /><rect fill="rgb(139,153,184)" height="1" width="1" x="3" y="8" /><rect fill="rgb(117,139,174)" height="1" width="1" x="4" y="8" /><rect fill="rgb(107,134,149)" height="1" width="1" x="5" y="8" /><rect fill="rgb(137,159,122)" height="1" width="1" x="6" y="8" /><rect fill="rgb(65,171,144)" height="1" width="1" x="7" y="8" /><rect fill="rgb(132,146,181)" height="1" width="1" x="8" y="8" /><rect fill="rgb(171,159,195)" height="1" width="1" x="9" y="8" /><rect fill="rgb(109,140,165)" height="1" width="1" x="10" y="8" /><rect fill="rgb(0,179,178)" height="1" width="1" x="11" y="8" /><rect fill="rgb(98,81,136)" height="1" width="1" x="12" y="8" /><rect fill="rgb(223,62,87)" height="1" width="1" x="13" y="8" /><rect fill="rgb(166,210,222)" height="1" width="1" x="14" y="8" /><rect fill="rgb(154,198,212)" height="1" width="1" x="15" y="8" /><rect fill="rgb(158,201,215)" height="1" width="1" x="0" y="9" /><rect fill="rgb(155,198,212)" height="1" width="1" x="1" y="9" /><rect fill="rgb(166,208,221)" height="1" width="1" x="2" y="9" /><rect fill="rgb(147,166,183)" height="1" width="1" x="3" y="9" /><rect fill="rgb(0,181,168)" height="1" width="1" x="4" y="9" /><rect fill="rgb(74,147,117)" height="1" width="1" x="5" y="9" /><rect fill="rgb(203,35,47)" height="1" width="1" x="6" y="9" /><rect fill="rgb(129,136,102)" height="1" width="1" x="7" y="9" /><rect fill="rgb(0,208,165)" height="1" width="1" x="8" y="9" /><rect fill="rgb(40,157,152)" height="1" width="1" x="9" y="9" /><rect fill="rgb(17,160,166)" height="1" width="1" x="10" y="9" /><rect fill="rgb(89,119,118)" height="1" width="1" x="11" y="9" /><rect fill="rgb(172,114,137)" height="1" width="1" x="12" y="9" /><rect fill="rgb(217,95,142)" height="1" width="1" x="13" y="9" /><rect fill="rgb(184,191,205)" height="1" width="1" x="14" y="9" /><rect fill="rgb(153,202,215)" height="1" width="1" x="15" y="9" /><rect fill="rgb(159,201,214)" height="1" width="1" x="0" y="10" /><rect fill="rgb(155,197,210)" height="1" width="1" x="1" y="10" /><rect fill="rgb(164,211,226)" height="1" width="1" x="2" y="10" /><rect fill="rgb(224,109,95)" height="1" width="1" x="3" y="10" /><rect fill="rgb(79,112,142)" height="1" width="1" x="4" y="10" /><rect fill="rgb(24,142,164)" height="1" width="1" x="5" y="10" /><rect fill="rgb(156,91,102)" height="1" width="1" x="6" y="10" /><rect fill="rgb(55,144,144)" height="1" width="1" x="7" y="10" /><rect fill="rgb(0,200,181)" height="1" width="1" x="8" y="10" /><rect fill="rgb(68,172,207)" height="1" width="1" x="9" y="10" /><rect fill="rgb(26,118,166)" height="1" width="1" x="10" y="10" /><rect fill="rgb(206,62,56)" height="1" width="1" x="11" y="10" /><rect fill="rgb(242,128,63)" height="1" width="1" x="12" y="10" /><rect fill="rgb(185,204,219)" height="1" width="1" x="13" y="10" /><rect fill="rgb(160,203,217)" height="1" width="1" x="14" y="10" /><rect fill="rgb(157,198,212)" height="1" width="1" x="15" y="10" /><rect fill="rgb(159,201,215)" height="1" width="1" x="0" y="11" /><rect fill="rgb(157,198,212)" height="1" width="1" x="1" y="11" /><rect fill="rgb(158,203,217)" height="1" width="1" x="2" y="11" /><rect fill="rgb(185,180,195)" height="1" width="1" x="3" y="11" /><rect fill="rgb(184,170,191)" height="1" width="1" x="4" y="11" /><rect fill="rgb(92,144,191)" height="1" width="1" x="5" y="11" /><rect fill="rgb(29,105,175)" height="1" width="1" x="6" y="11" /><rect fill="rgb(22,132,182)" height="1" width="1" x="7" y="11" /><rect fill="rgb(37,121,174)" height="1" width="1" x="8" y="11" /><rect fill="rgb(83,83,144)" height="1" width="1" x="9" y="11" /><rect fill="rgb(178,77,131)" height="1" width="1" x="10" y="11" /><rect fill="rgb(181,147,182)" height="1" width="1" x="11" y="11" /><rect fill="rgb(185,171,187)" height="1" width="1" x="12" y="11" /><rect fill="rgb(162,201,214)" height="1" width="1" x="13" y="11" /><rect fill="rgb(155,199,213)" height="1" width="1" x="14" y="11" /><rect fill="rgb(158,199,213)" height="1" width="1" x="15" y="11" /><rect fill="rgb(159,202,215)" height="1" width="1" x="0" y="12" /><rect fill="rgb(158,199,213)" height="1" width="1" x="1" y="12" /><rect fill="rgb(158,199,213)" height="1" width="1" x="2" y="12" /><rect fill="rgb(153,204,218)" height="1" width="1" x="3" y="12" /><rect fill="rgb(158,210,222)" height="1" width="1" x="4" y="12" /><rect fill="rgb(182,203,215)" height="1" width="1" x="5" y="12" /><rect fill="rgb(177,156,194)" height="1" width="1" x="6" y="12" /><rect fill="rgb(175,112,171)" height="1" width="1" x="7" y="12" /><rect fill="rgb(186,98,155)" height="1" width="1" x="8" y="12" /><rect fill="rgb(199,118,159)" height="1" width="1" x="9" y="12" /><rect fill="rgb(182,185,204)" height="1" width="1" x="10" y="12" /><rect fill="rgb(162,215,225)" height="1" width="1" x="11" y="12" /><rect fill="rgb(153,207,221)" height="1" width="1" x="12" y="12" /><rect fill="rgb(157,199,214)" height="1" width="1" x="13" y="12" /><rect fill="rgb(159,200,213)" height="1" width="1" x="14" y="12" /><rect fill="rgb(158,199,213)" height="1" width="1" x="15" y="12" /><rect fill="rgb(159,201,215)" height="1" width="1" x="0" y="13" /><rect fill="rgb(158,199,213)" height="1" width="1" x="1" y="13" /><rect fill="rgb(158,199,213)" height="1" width="1" x="2" y="13" /><rect fill="rgb(159,198,212)" height="1" width="1" x="3" y="13" /><rect fill="rgb(158,197,211)" height="1" width="1" x="4" y="13" /><rect fill="rgb(154,200,214)" height="1" width="1" x="5" y="13" /><rect fill="rgb(162,211,220)" height="1" width="1" x="6" y="13" /><rect fill="rgb(168,212,220)" height="1" width="1" x="7" y="13" /><rect fill="rgb(166,211,222)" height="1" width="1" x="8" y="13" /><rect fill="rgb(158,215,225)" height="1" width="1" x="9" y="13" /><rect fill="rgb(155,205,218)" height="1" width="1" x="10" y="13" /><rect fill="rgb(156,197,211)" height="1" width="1" x="11" y="13" /><rect fill="rgb(159,198,211)" height="1" width="1" x="12" y="13" /><rect fill="rgb(158,199,213)" height="1" width="1" x="13" y="13" /><rect fill="rgb(158,199,213)" height="1" width="1" x="14" y="13" /><rect fill="rgb(158,199,213)" height="1" width="1" x="15" y="13" /><rect fill="rgb(160,201,215)" height="1" width="1" x="0" y="14" /><rect fill="rgb(158,199,213)" height="1" width="1" x="1" y="14" /><rect fill="rgb(158,200,213)" height="1" width="1" x="2" y="14" /><rect fill="rgb(158,200,213)" height="1" width="1" x="3" y="14" /><rect fill="rgb(159,200,214)" height="1" width="1" x="4" y="14" /><rect fill="rgb(159,199,213)" height="1" width="1" x="5" y="14" /><rect fill="rgb(157,197,212)" height="1" width="1" x="6" y="14" /><rect fill="rgb(155,198,213)" height="1" width="1" x="7" y="14" /><rect fill="rgb(155,199,214)" height="1" width="1" x="8" y="14" /><rect fill="rgb(156,197,212)" height="1" width="1" x="9" y="14" /><rect fill="rgb(158,198,212)" height="1" width="1" x="10" y="14" /><rect fill="rgb(158,199,213)" height="1" width="1" x="11" y="14" /><rect fill="rgb(158,199,213)" height="1" width="1" x="12" y="14" /><rect fill="rgb(158,199,213)" height="1" width="1" x="13" y="14" /><rect fill="rgb(158,199,213)" height="1" width="1" x="14" y="14" /><rect fill="rgb(158,200,214)" height="1" width="1" x="15" y="14" /><rect fill="rgb(159,203,217)" height="1" width="1" x="0" y="15" /><rect fill="rgb(158,200,214)" height="1" width="1" x="1" y="15" /><rect fill="rgb(159,200,214)" height="1" width="1" x="2" y="15" /><rect fill="rgb(158,200,213)" height="1" width="1" x="3" y="15" /><rect fill="rgb(158,201,214)" height="1" width="1" x="4" y="15" /><rect fill="rgb(158,200,214)" height="1" width="1" x="5" y="15" /><rect fill="rgb(158,200,214)" height="1" width="1" x="6" y="15" /><rect fill="rgb(158,201,215)" height="1" width="1" x="7" y="15" /><rect fill="rgb(158,201,214)" height="1" width="1" x="8" y="15" /><rect fill="rgb(158,200,213)" height="1" width="1" x="9" y="15" /><rect fill="rgb(158,200,213)" height="1" width="1" x="10" y="15" /><rect fill="rgb(158,199,213)" height="1" width="1" x="11" y="15" /><rect fill="rgb(158,200,214)" height="1" width="1" x="12" y="15" /><rect fill="rgb(158,199,213)" height="1" width="1" x="13" y="15" /><rect fill="rgb(158,200,214)" height="1" width="1" x="14" y="15" /><rect fill="rgb(157,200,215)" height="1" width="1" x="15" y="15" /></svg>